<?xml version="1.0" encoding="UTF-8" standalone="no"?>
<!-- Created with Inkscape (http://www.inkscape.org/) -->

<svg
   xmlns:dc="http://purl.org/dc/elements/1.1/"
   xmlns:cc="http://creativecommons.org/ns#"
   xmlns:rdf="http://www.w3.org/1999/02/22-rdf-syntax-ns#"
   xmlns:svg="http://www.w3.org/2000/svg"
   xmlns="http://www.w3.org/2000/svg"
   xmlns:sodipodi="http://sodipodi.sourceforge.net/DTD/sodipodi-0.dtd"
   xmlns:inkscape="http://www.inkscape.org/namespaces/inkscape"
   version="1.1"
   width="800"
   height="450"
   id="svg2"
   inkscape:version="0.48.3.1 r9886"
   sodipodi:docname="our.svg">
  <sodipodi:namedview
     pagecolor="#ffffff"
     bordercolor="#666666"
     borderopacity="1"
     objecttolerance="10"
     gridtolerance="10"
     guidetolerance="10"
     inkscape:pageopacity="0"
     inkscape:pageshadow="2"
     inkscape:window-width="1366"
     inkscape:window-height="744"
     id="namedview102"
     showgrid="false"
     inkscape:zoom="0.73"
     inkscape:cx="676.83041"
     inkscape:cy="210.63922"
     inkscape:window-x="0"
     inkscape:window-y="24"
     inkscape:window-maximized="1"
     inkscape:current-layer="svg2" />
  <defs
     id="defs4" />
  <metadata
     id="metadata7">
    <rdf:RDF>
      <cc:Work
         rdf:about="">
        <dc:format>image/svg+xml</dc:format>
        <dc:type
           rdf:resource="http://purl.org/dc/dcmitype/StillImage" />
        <dc:title />
      </cc:Work>
    </rdf:RDF>
  </metadata>
  <path
     style="fill:#000000"
     d=""
     id="path4041"
     inkscape:connector-curvature="0" />
  <g
     id="g4378">
    <g
       transform="translate(2,14)"
       id="g4184">
      <rect
         style="fill:#07c78e;fill-opacity:1;stroke:none"
         id="rect4575"
         y="152.57146"
         x="7.1428695"
         height="53.858574"
         width="211.42857" />
      <text
         sodipodi:linespacing="125%"
         style="font-size:47.99891663px;font-style:normal;font-weight:normal;line-height:125%;letter-spacing:0px;word-spacing:0px;fill:#ffffff;fill-opacity:1;stroke:none;font-family:Sans"
         xml:space="preserve"
         id="text2985"
         y="189.70918"
         x="12.382001"
         transform="scale(0.98668897,1.0134906)"><tspan
           style="font-style:normal;font-variant:normal;font-weight:normal;font-stretch:normal;fill:#ffffff;fill-opacity:1;font-family:Sawasdee;-inkscape-font-specification:Sawasdee"
           id="tspan2987"
           y="189.70918"
           x="12.382001">AppsClay</tspan></text>
      <text
         sodipodi:linespacing="125%"
         style="font-size:47.99891663px;font-style:normal;font-weight:normal;line-height:125%;letter-spacing:4.66789484px;word-spacing:0px;fill:#07c78e;fill-opacity:1;stroke:none;font-family:Sans"
         xml:space="preserve"
         id="text2989"
         y="256.82385"
         x="5.5249352"
         transform="scale(0.98668894,1.0134906)"><tspan
           style="font-style:normal;font-variant:normal;font-weight:normal;font-stretch:normal;letter-spacing:4.66789484px;fill:#07c78e;fill-opacity:1;font-family:Sawasdee;-inkscape-font-specification:Sawasdee"
           id="tspan2991"
           y="256.82385"
           x="5.5249352">Services</tspan></text>
    </g>
    <g
       id="g4289">
      <g
         id="g4244"
         transform="translate(14,34)">
        <path
           transform="translate(615.57035,169.99622)"
           d="m 150.13911,12.659299 c 0,33.970263 -27.53834,61.508602 -61.508602,61.508602 -33.970263,0 -61.508602,-27.538339 -61.508602,-61.508602 0,-33.970263 27.538339,-61.508602 61.508602,-61.508602 33.970262,0 61.508602,27.538339 61.508602,61.508602 z"
           sodipodi:ry="61.508602"
           sodipodi:rx="61.508602"
           sodipodi:cy="12.659299"
           sodipodi:cx="88.630508"
           id="path4191-2-2"
           style="fill:#ffffff;fill-opacity:1;stroke:none"
           sodipodi:type="arc" />
        <path
           style="fill:#07c78e;fill-opacity:1"
           d="m 697.35852,252.41926 c -25.95938,-2.4555 -48.68875,-18.95266 -59.02498,-42.8408 -4.12926,-9.54315 -5.82366,-18.00307 -5.81181,-29.01761 0.0175,-16.22144 4.76495,-30.43651 14.5192,-43.47369 9.50754,-12.70744 24.15616,-22.37532 39.53983,-26.09572 8.71509,-2.10766 19.39984,-2.6686 27.89233,-1.46433 28.97647,4.109 52.41749,25.16227 59.54798,53.48232 2.85173,11.32618 2.85879,24.00395 0.0197,35.3873 -2.37687,9.53011 -7.1735,19.41843 -12.99275,26.78479 -15.28549,19.3493 -39.15695,29.55828 -63.68948,27.23774 z m 44.35534,-33.17374 c 0.2037,-0.32226 0.33717,-11.42918 0.34046,-28.33264 0.005,-24.80861 -0.0544,-27.86239 -0.54989,-28.35789 -0.77722,-0.77722 -13.96904,-0.83319 -14.60909,-0.062 -0.47665,0.57433 -0.6063,56.32131 -0.13207,56.78764 0.38404,0.37764 2.52564,0.49492 9.03706,0.49492 4.57415,0 5.6388,-0.0954 5.91353,-0.53005 z m -63.68464,-0.0707 c 0.30786,-0.30786 0.42404,-2.91842 0.42404,-9.52854 0,-8.63968 -0.0349,-9.12316 -0.68351,-9.47029 -0.87553,-0.46857 -13.44058,-0.48672 -14.66505,-0.0212 l -0.90642,0.34461 0,9.17879 c 0,8.36891 0.0546,9.21056 0.61839,9.53897 0.92192,0.53697 14.67151,0.49867 15.21255,-0.0424 z m 21.20215,0 c 0.3133,-0.31329 0.42405,-3.58305 0.42405,-12.51937 0,-10.52459 -0.0721,-12.16743 -0.5553,-12.65062 -0.7818,-0.7818 -13.96942,-0.83273 -14.61369,-0.0564 -0.60611,0.73032 -0.53845,24.97729 0.0708,25.36432 0.74396,0.47264 14.18999,0.34628 14.67416,-0.13789 z m 21.20216,0 c 0.31904,-0.31903 0.42404,-5.01558 0.42404,-18.96577 0,-16.75739 -0.0563,-18.60392 -0.58482,-19.18795 -0.52675,-0.58206 -1.23936,-0.64623 -7.17653,-0.64623 -4.73337,0 -6.76287,0.12516 -7.19885,0.44396 -0.56083,0.41009 -0.60714,1.88394 -0.60714,19.32021 0,14.92899 0.0944,18.93614 0.45126,19.16263 0.75685,0.4803 14.20097,0.36423 14.69204,-0.12685 z m -50.73201,-23.46491 c 2.50473,-0.43404 12.20659,-3.97214 14.52084,-5.2955 0.81124,-0.46388 1.71712,-0.84534 2.01308,-0.84768 0.29597,-0.002 1.40908,-0.58381 2.47359,-1.29214 1.06451,-0.70834 2.89327,-1.72718 4.06392,-2.2641 5.2336,-2.40038 15.92712,-10.39335 25.08099,-18.74702 4.59012,-4.18887 13.03743,-12.97973 14.55652,-15.14854 0.73682,-1.05196 1.5981,-0.88517 3.59986,0.69714 2.1102,1.66802 2.7861,1.76599 3.04726,0.44171 0.10541,-0.53447 0.34414,-1.68734 0.53052,-2.56193 1.09655,-5.14549 1.56894,-8.81816 1.18377,-9.20333 -0.17486,-0.17486 -2.04725,0.29181 -4.33459,1.08032 -2.21473,0.76348 -4.7975,1.64415 -5.7395,1.95703 -2.17077,0.72101 -2.19231,1.30771 -0.12255,3.33903 0.87459,0.85834 1.59016,1.78512 1.59016,2.0595 0,1.42045 -14.54012,16.25537 -21.56,21.99713 -7.78237,6.36542 -16.94966,12.73552 -21.55105,14.97524 -1.45765,0.70951 -3.06938,1.51828 -3.58162,1.79728 -4.21025,2.29313 -15.56704,6.20595 -19.62811,6.76259 -1.56543,0.21456 -2.08328,0.55759 -1.72265,1.14111 0.11511,0.18625 1.05201,0.11524 2.22942,-0.16898 1.11697,-0.26963 2.62454,-0.59311 3.35014,-0.71886 z m 18.7123,-16.0857 c 2.67366,-1.77333 4.93587,-3.48276 5.02713,-3.79872 0.0912,-0.31596 0.4398,-1.88164 0.77453,-3.47928 l 0.60862,-2.9048 3.21074,-1.84376 c 6.77266,-3.88918 11.79509,-8.22218 14.98291,-12.92621 2.22107,-3.27746 2.30352,-2.91001 -1.91173,-8.51967 -4.28905,-5.70787 -4.08964,-5.60759 -8.13986,-4.09347 -5.53035,2.06743 -10.725,5.52523 -15.81129,10.52469 l -2.87102,2.82201 -2.47358,-0.0642 c -1.36047,-0.0353 -2.88156,-0.14789 -3.38019,-0.25012 -0.612,-0.12548 -1.24358,0.0725 -1.94353,0.60909 -1.86074,1.42658 -8.281,7.05128 -8.281,7.25486 0,0.65018 1.57433,2.57877 2.10507,2.57877 0.59671,0 4.05313,-1.36037 5.39924,-2.12503 1.21198,-0.68847 2.83054,-0.17417 1.68329,0.53487 -0.80296,0.49626 -0.20522,1.77729 2.51228,5.38413 3.34298,4.43701 3.56383,4.64329 4.73221,4.41994 1.40857,-0.26927 1.09301,0.61743 -1.23721,3.47643 -1.16612,1.43073 -2.12021,2.79235 -2.12021,3.02583 0,0.45953 1.68837,2.59893 2.05103,2.59893 0.12175,0 2.40891,-1.45091 5.08257,-3.22425 z m 12.30171,-23.73381 c -0.48589,-0.24472 -1.18091,-0.99771 -1.5445,-1.6733 -0.61494,-1.14262 -0.62247,-1.32058 -0.10788,-2.54989 0.66002,-1.57671 2.47901,-2.61274 3.94242,-2.24545 3.32344,0.83413 3.57964,5.34661 0.37279,6.56585 -1.20843,0.45945 -1.58489,0.4457 -2.66283,-0.0972 z m -23.56932,23.03681 c 1.65116,-1.36102 2.72053,-3.40174 2.72053,-5.1917 0,-2.94084 -3.19251,-5.93817 -6.0361,-5.66705 -1.17742,0.11226 -1.20797,0.15506 -1.20797,1.6924 0,1.40895 -0.12593,1.65401 -1.18031,2.2969 -2.19191,1.33648 -3.36879,2.5163 -3.13021,3.13805 0.12353,0.32189 0.5369,0.58526 0.91861,0.58526 0.91928,0 1.26749,1.20407 0.72616,2.51096 -0.23816,0.57497 -0.36282,1.11559 -0.27703,1.20139 0.0858,0.0858 0.73484,-0.23734 1.4423,-0.71807 1.44206,-0.97991 3.02777,-1.1463 3.27841,-0.34401 0.0911,0.29153 0.24012,0.76858 0.3312,1.06011 0.25158,0.80529 0.95132,0.64177 2.41441,-0.56424 z m 40.05924,-33.36079 c 1.3386,-4.10323 1.39623,-4.62754 0.55794,-5.07618 -0.93468,-0.50023 -8.23359,-0.0519 -8.45275,0.51922 -0.24673,0.64297 5.58748,8.31128 6.22943,8.18779 0.30723,-0.0591 0.97541,-1.51586 1.66538,-3.63083 z"
           id="path4074"
           inkscape:connector-curvature="0" />
      </g>
      <text
         sodipodi:linespacing="125%"
         style="font-size:40px;font-style:normal;font-variant:normal;font-weight:normal;font-stretch:normal;line-height:125%;letter-spacing:0px;word-spacing:0px;fill:#ffffff;fill-opacity:1;stroke:none;font-family:Kaushan Script;-inkscape-font-specification:Kaushan Script"
         xml:space="preserve"
         id="text4602"
         y="310.25784"
         x="638.45294"><tspan
           style="font-size:22px;font-style:normal;font-variant:normal;font-weight:normal;font-stretch:normal;fill:#ffffff;fill-opacity:1;font-family:Sawasdee;-inkscape-font-specification:Sawasdee"
           id="tspan4604"
           y="310.25784"
           x="638.45294">Digital Marketing</tspan></text>
    </g>
    <g
       id="g4304">
      <g
         id="g4266"
         transform="translate(3.623673,60.055644)">
        <path
           transform="translate(452.83893,303.66846)"
           d="m 150.13911,12.659299 c 0,33.970263 -27.53834,61.508602 -61.508602,61.508602 -33.970263,0 -61.508602,-27.538339 -61.508602,-61.508602 0,-33.970263 27.538339,-61.508602 61.508602,-61.508602 33.970262,0 61.508602,27.538339 61.508602,61.508602 z"
           sodipodi:ry="61.508602"
           sodipodi:rx="61.508602"
           sodipodi:cy="12.659299"
           sodipodi:cx="88.630508"
           id="path4191-2-7"
           style="fill:#ffffff;fill-opacity:1;stroke:none"
           sodipodi:type="arc" />
        <path
           style="fill:#07c78e;fill-opacity:1"
           d="m 533.92606,384.29883 c 0,-0.37652 -0.88423,-0.68458 -1.96496,-0.68458 -3.03028,0 -11.87817,-2.41601 -17.83748,-4.8707 -20.35876,-8.38597 -37.19351,-29.24609 -40.57542,-50.27742 -0.45059,-2.80214 -1.06041,-5.09479 -1.35515,-5.09479 -0.29475,0 -0.5359,-3.38866 -0.5359,-7.53036 0,-4.56386 0.27255,-7.53037 0.69187,-7.53037 0.38054,0 0.69188,-0.8749 0.69188,-1.94423 0,-1.06932 0.60401,-4.28099 1.34225,-7.13702 6.37632,-24.66818 25.43368,-43.52451 50.36484,-49.83356 2.88649,-0.73046 6.13239,-1.3281 7.21311,-1.3281 1.08073,0 1.96496,-0.30806 1.96496,-0.68458 0,-0.41292 2.88282,-0.68458 7.26471,-0.68458 4.38188,0 7.2647,0.27166 7.2647,0.68458 0,0.37652 1.03991,0.68458 2.3109,0.68458 1.27099,0 4.67256,0.59764 7.55905,1.3281 24.93116,6.30905 43.98852,25.16538 50.36483,49.83356 0.73824,2.85603 1.34226,6.0677 1.34226,7.13702 0,1.06933 0.31134,1.94423 0.69188,1.94423 0.41932,0 0.69187,2.96651 0.69187,7.53037 0,4.1417 -0.24115,7.53036 -0.5359,7.53036 -0.29474,0 -0.90456,2.29265 -1.35516,5.09479 -3.37694,21.00045 -20.24655,41.90376 -40.57541,50.27742 -5.95931,2.45469 -14.8072,4.8707 -17.83748,4.8707 -1.08073,0 -1.96496,0.30806 -1.96496,0.68458 0,0.41489 -2.99813,0.68458 -7.61065,0.68458 -4.61251,0 -7.61064,-0.26969 -7.61064,-0.68458 z m 17.77798,-28.8779 c 1.52939,-1.42163 2.13123,-1.48595 12.3019,-1.31479 10.63203,0.17893 10.70399,0.16994 12.44705,-1.55473 l 1.75319,-1.73469 0,-38.97626 c 0,-37.35578 -0.055,-39.04344 -1.32263,-40.59239 l -1.32262,-1.61615 -20.10085,0 c -18.36549,0 -20.20751,0.10543 -21.33634,1.22111 -1.10064,1.08783 -1.25824,2.9265 -1.44392,16.84553 l -0.20842,15.62441 -3.76203,0 c -5.30107,0 -11.21352,3.02422 -16.84549,8.61647 -2.43062,2.41348 -4.81399,5.12583 -5.29637,6.02743 -0.48238,0.90161 -2.22982,2.428 -3.8832,3.39199 -1.84334,1.07474 -3.0919,2.33428 -3.22783,3.25621 -0.27075,1.8363 3.29688,5.60205 5.30732,5.60205 1.36537,0 4.25469,-2.93166 4.25469,-4.31703 0,-2.69911 5.78632,-4.36146 7.61065,-2.18646 0.47372,0.56478 1.38105,1.02687 2.01629,1.02687 1.57002,0 6.7948,5.41071 7.2716,7.53036 0.32117,1.42779 -0.1586,2.13687 -2.89474,4.27829 -1.80384,1.41176 -5.53695,4.6594 -8.29581,7.21698 -4.31808,4.00304 -5.01611,4.9734 -5.01611,6.97314 0,4.90192 5.56231,7.28382 9.22782,3.95154 1.77281,-1.61166 7.72143,-8.11931 11.05307,-12.09182 1.7846,-2.12789 2.03811,-2.22952 3.05401,-1.22434 0.91529,0.90563 0.95262,1.28125 0.21477,2.16094 -1.43488,1.71068 -0.5519,7.88014 1.34538,9.40025 1.78697,1.43174 6.89592,1.68728 8.1873,0.40951 0.65995,-0.65299 1.31963,-0.35836 3.06555,1.36916 2.62178,2.59411 3.67771,2.72172 5.84577,0.70642 z m -37.36674,-3.73941 c -0.97936,-0.96904 -0.42518,-2.2962 0.95882,-2.2962 0.96721,0 1.36161,0.37176 1.21078,1.14128 -0.24696,1.25996 -1.42803,1.88866 -2.1696,1.15492 z m 42.19668,-2.101 c -0.23938,-0.38324 0.18012,-1.2478 0.93221,-1.92125 1.55731,-1.39448 1.83308,-0.53488 0.43523,1.35663 -0.555,0.75099 -1.10832,0.97947 -1.36744,0.56462 z m -13.08187,-12.71571 -4.65742,-4.25166 4.31148,-4.28063 c 4.19855,-4.16849 4.37392,-4.26289 6.6949,-3.60357 4.31577,1.22599 9.9747,-1.28303 12.0765,-5.35439 1.60954,-3.11782 1.92592,-5.83873 0.84844,-7.29674 -0.95409,-1.29101 -1.1197,-1.22104 -4.4875,1.89591 -4.99315,4.62124 -9.09116,4.38379 -9.09116,-0.52676 0,-1.57151 0.71619,-2.81214 2.76751,-4.79407 4.37461,-4.22663 3.32136,-6.57227 -2.2809,-5.07965 -5.64573,1.5042 -9.58616,7.81554 -8.0939,12.96388 0.61607,2.12545 0.48058,2.53155 -1.52911,4.58315 -1.21279,1.23808 -2.45535,2.25106 -2.76123,2.25106 -0.30588,0 -0.55615,-9.85793 -0.55615,-21.90651 l 0,-21.90652 18.68067,0 18.68068,0 0,30.12146 0,30.12145 -12.06701,0 c -7.29836,0 -12.236,0.27054 -12.49462,0.68458 -0.69516,1.11293 -1.16195,0.83315 -6.04118,-3.62099 z m -12.98543,-9.86528 c -3.45288,-1.23498 -8.9944,-8.69335 -8.9944,-12.10563 0,-2.70163 3.12633,-5.7478 7.09627,-6.91431 1.94317,-0.57098 3.6322,-1.03814 3.75339,-1.03814 0.1212,0 0.22037,3.98661 0.22037,8.85912 0,5.16764 0.28829,9.03542 0.69187,9.28222 0.38054,0.2327 0.69188,0.867 0.69188,1.40956 0,0.98618 -1.50374,1.20665 -3.45938,0.50718 z m 22.3339,-53.42188 c 1.81901,-0.14149 4.62111,-0.13978 6.22689,0.004 1.60578,0.14357 0.1175,0.25933 -3.30729,0.25725 -3.42479,-0.002 -4.73861,-0.11956 -2.9196,-0.26104 z"
           id="path4155"
           inkscape:connector-curvature="0" />
      </g>
      <text
         sodipodi:linespacing="125%"
         style="font-size:40px;font-style:normal;font-variant:normal;font-weight:normal;font-stretch:normal;line-height:125%;letter-spacing:0px;word-spacing:0px;fill:#ffffff;fill-opacity:1;stroke:none;font-family:Kaushan Script;-inkscape-font-specification:Kaushan Script"
         xml:space="preserve"
         id="text4602-1"
         y="266.3873"
         x="479.15167"><tspan
           style="font-size:22px;font-style:normal;font-variant:normal;font-weight:normal;font-stretch:normal;fill:#ffffff;fill-opacity:1;font-family:Sawasdee;-inkscape-font-specification:Sawasdee"
           id="tspan4604-0"
           y="266.3873"
           x="479.15167"><tspan
             style="letter-spacing:0.01px;fill:#ffffff;fill-opacity:1"
             id="tspan4655"><tspan
               style="letter-spacing:0.02px;fill:#ffffff;fill-opacity:1"
               id="tspan4659"><tspan
                 style="letter-spacing:0.03px;fill:#ffffff;fill-opacity:1"
                 id="tspan4663"><tspan
                   style="letter-spacing:0.04px;fill:#ffffff;fill-opacity:1"
                   id="tspan4665"><tspan
                     style="letter-spacing:0.05px;fill:#ffffff;fill-opacity:1"
                     id="tspan4667"><tspan
                       style="letter-spacing:0.06px;fill:#ffffff;fill-opacity:1"
                       id="tspan4669"><tspan
                         style="letter-spacing:0.07px;fill:#ffffff;fill-opacity:1"
                         id="tspan4671"><tspan
                           style="letter-spacing:0.08px;fill:#ffffff;fill-opacity:1"
                           id="tspan4673"><tspan
                             style="letter-spacing:0.09px;fill:#ffffff;fill-opacity:1"
                             id="tspan4675"><tspan
                               style="letter-spacing:0.1px;fill:#ffffff;fill-opacity:1"
                               id="tspan4677"><tspan
                                 style="letter-spacing:0.20999999px;fill:#ffffff;fill-opacity:1"
                                 id="tspan4679"><tspan
                                   style="letter-spacing:0.31999999px;fill:#ffffff;fill-opacity:1"
                                   id="tspan4681"><tspan
                                   style="letter-spacing:0.42999998px;fill:#ffffff;fill-opacity:1"
                                   id="tspan4683"><tspan
                                   style="letter-spacing:0.53999996px;fill:#ffffff;fill-opacity:1"
                                   id="tspan4685"><tspan
                                   style="letter-spacing:0.54000002px;fill:#ffffff;fill-opacity:1"
                                   id="tspan4687"><tspan
                                   style="letter-spacing:0.55000001px;fill:#ffffff;fill-opacity:1"
                                   id="tspan4689"><tspan
                                   style="letter-spacing:0.56px;fill:#ffffff;fill-opacity:1"
                                   id="tspan4691"><tspan
                                   style="letter-spacing:0.56999999px;fill:#ffffff;fill-opacity:1"
                                   id="tspan4693"><tspan
                                   style="letter-spacing:0.57999998px;fill:#ffffff;fill-opacity:1"
                                   id="tspan4695"><tspan
                                   style="letter-spacing:0.58999997px;fill:#ffffff;fill-opacity:1"
                                   id="tspan4697"><tspan
                                   style="letter-spacing:0.59999996px;fill:#ffffff;fill-opacity:1"
                                   id="tspan4699"><tspan
                                   style="letter-spacing:0.60000002px;fill:#ffffff;fill-opacity:1"
                                   id="tspan4701"><tspan
                                   style="letter-spacing:0.61000001px;fill:#ffffff;fill-opacity:1"
                                   id="tspan4703"><tspan
                                   style="letter-spacing:0.62px;fill:#ffffff;fill-opacity:1"
                                   id="tspan4705"><tspan
                                   style="letter-spacing:0.63px;fill:#ffffff;fill-opacity:1"
                                   id="tspan4707"><tspan
                                   style="letter-spacing:0.63999999px;fill:#ffffff;fill-opacity:1"
                                   id="tspan4709"><tspan
                                   style="letter-spacing:0.64999998px;fill:#ffffff;fill-opacity:1"
                                   id="tspan4711"><tspan
                                   style="letter-spacing:0.65999997px;fill:#ffffff;fill-opacity:1"
                                   id="tspan4713"><tspan
                                   style="letter-spacing:0.66999996px;fill:#ffffff;fill-opacity:1"
                                   id="tspan4715"><tspan
                                   style="letter-spacing:0.67999995px;fill:#ffffff;fill-opacity:1"
                                   id="tspan4717"><tspan
                                   style="letter-spacing:0.78999996px;fill:#ffffff;fill-opacity:1"
                                   id="tspan4719"><tspan
                                   style="letter-spacing:0.89999998px;fill:#ffffff;fill-opacity:1"
                                   id="tspan4721"><tspan
                                   style="letter-spacing:0.91000003px;fill:#ffffff;fill-opacity:1"
                                   id="tspan4725"><tspan
                                   style="letter-spacing:0.92000002px;fill:#ffffff;fill-opacity:1"
                                   id="tspan4727"><tspan
                                   style="letter-spacing:0.93000001px;fill:#ffffff;fill-opacity:1"
                                   id="tspan4729"><tspan
                                   style="letter-spacing:0.94px;fill:#ffffff;fill-opacity:1"
                                   id="tspan4731"><tspan
                                   style="letter-spacing:0.94999999px;fill:#ffffff;fill-opacity:1"
                                   id="tspan4733"><tspan
                                   style="letter-spacing:0.95999998px;fill:#ffffff;fill-opacity:1"
                                   id="tspan4735"><tspan
                                   style="letter-spacing:0.96999997px;fill:#ffffff;fill-opacity:1"
                                   id="tspan4737"><tspan
                                   style="letter-spacing:0.97999996px;fill:#ffffff;fill-opacity:1"
                                   id="tspan4739"><tspan
                                   style="letter-spacing:1.08999991px;fill:#ffffff;fill-opacity:1"
                                   id="tspan4741"><tspan
                                   style="letter-spacing:1.19999993px;fill:#ffffff;fill-opacity:1"
                                   id="tspan4743"><tspan
                                   style="letter-spacing:1.30999994px;fill:#ffffff;fill-opacity:1"
                                   id="tspan4745"><tspan
                                   style="letter-spacing:1.41999996px;fill:#ffffff;fill-opacity:1"
                                   id="tspan4747"><tspan
                                   style="letter-spacing:1.52999997px;fill:#ffffff;fill-opacity:1"
                                   id="tspan4749"><tspan
                                   style="letter-spacing:1.63999999px;fill:#ffffff;fill-opacity:1"
                                   id="tspan4751"><tspan
                                   style="letter-spacing:1.63px;fill:#ffffff;fill-opacity:1"
                                   id="tspan4755"><tspan
                                   style="letter-spacing:1.62px;fill:#ffffff;fill-opacity:1"
                                   id="tspan4757"><tspan
                                   style="letter-spacing:1.61000001px;fill:#ffffff;fill-opacity:1"
                                   id="tspan4759"><tspan
                                   style="letter-spacing:1.60000002px;fill:#ffffff;fill-opacity:1"
                                   id="tspan4763"><tspan
                                   style="letter-spacing:1.59000003px;fill:#ffffff;fill-opacity:1"
                                   id="tspan4765"><tspan
                                   style="letter-spacing:1.58000004px;fill:#ffffff;fill-opacity:1"
                                   id="tspan4767"><tspan
                                   style="letter-spacing:1.57000005px;fill:#ffffff;fill-opacity:1"
                                   id="tspan4769"><tspan
                                   style="letter-spacing:1.56000006px;fill:#ffffff;fill-opacity:1"
                                   id="tspan4771"><tspan
                                   style="letter-spacing:1.55999994px;fill:#ffffff;fill-opacity:1"
                                   id="tspan4773"><tspan
                                   style="letter-spacing:1.54999995px;fill:#ffffff;fill-opacity:1"
                                   id="tspan4775"><tspan
                                   style="letter-spacing:1.53999996px;fill:#ffffff;fill-opacity:1"
                                   id="tspan4779"><tspan
                                   style="letter-spacing:1.52999997px;fill:#ffffff;fill-opacity:1"
                                   id="tspan4783"><tspan
                                   style="letter-spacing:1.51999998px;fill:#ffffff;fill-opacity:1"
                                   id="tspan4785"><tspan
                                   style="letter-spacing:1.50999999px;fill:#ffffff;fill-opacity:1"
                                   id="tspan4787"><tspan
                                   style="letter-spacing:1.5px;fill:#ffffff;fill-opacity:1"
                                   id="tspan4789"><tspan
                                   style="letter-spacing:1.49000001px;fill:#ffffff;fill-opacity:1"
                                   id="tspan4791"><tspan
                                   style="letter-spacing:1.48000002px;fill:#ffffff;fill-opacity:1"
                                   id="tspan4793"><tspan
                                   style="letter-spacing:1.47000003px;fill:#ffffff;fill-opacity:1"
                                   id="tspan4795"><tspan
                                   style="letter-spacing:1.46000004px;fill:#ffffff;fill-opacity:1"
                                   id="tspan4797"><tspan
                                   style="letter-spacing:1.45000005px;fill:#ffffff;fill-opacity:1"
                                   id="tspan4801">Mobile App </tspan></tspan></tspan></tspan></tspan></tspan></tspan></tspan></tspan></tspan></tspan></tspan></tspan></tspan></tspan></tspan></tspan></tspan></tspan></tspan></tspan></tspan></tspan></tspan></tspan></tspan></tspan></tspan></tspan></tspan></tspan></tspan></tspan></tspan></tspan></tspan></tspan></tspan></tspan></tspan></tspan></tspan></tspan></tspan></tspan></tspan></tspan></tspan></tspan></tspan></tspan></tspan></tspan></tspan></tspan></tspan></tspan></tspan></tspan></tspan></tspan></tspan></tspan></tspan></tspan></tspan></tspan><tspan
           style="font-size:22px;font-style:normal;font-variant:normal;font-weight:normal;font-stretch:normal;fill:#ffffff;fill-opacity:1;font-family:Sawasdee;-inkscape-font-specification:Sawasdee"
           id="tspan4653"
           y="293.8873"
           x="479.15167">Development</tspan></text>
    </g>
    <g
       id="g4274">
      <g
         id="g4211"
         transform="translate(58.181087,73.679318)">
        <path
           transform="translate(194.69652,-11.623673)"
           d="m 150.13911,12.659299 c 0,33.970263 -27.53834,61.508602 -61.508602,61.508602 -33.970263,0 -61.508602,-27.538339 -61.508602,-61.508602 0,-33.970263 27.538339,-61.508602 61.508602,-61.508602 33.970262,0 61.508602,27.538339 61.508602,61.508602 z"
           sodipodi:ry="61.508602"
           sodipodi:rx="61.508602"
           sodipodi:cy="12.659299"
           sodipodi:cx="88.630508"
           id="path4191"
           style="fill:#ffffff;fill-opacity:1;stroke:none"
           sodipodi:type="arc" />
        <path
           style="fill:#07c78e;fill-opacity:1"
           d="m 270.68675,67.810785 c -9.8699,-1.81694 -19.7231,-6.02899 -28.52585,-12.19424 -14.19569,-9.94234 -24.44833,-26.11977 -27.51905,-43.421769 -1.37791,-7.7638293 -0.87215,-21.9474053 1.03631,-29.062528 6.59747,-24.596625 25.3587,-42.987743 50.71672,-49.716219 4.98606,-1.322999 6.1886,-1.421299 17.38588,-1.421299 11.19729,0 12.39983,0.0983 17.38589,1.421299 25.34971,6.726271 43.8931,24.888102 50.76067,49.716219 1.35079,4.883467 1.45116,6.061259 1.45116,17.02814969 0,10.96689131 -0.10037,12.14468331 -1.45116,17.02814931 -6.86954,24.835238 -25.61921,43.185118 -50.76067,49.678338 -4.5982,1.18757 -6.82198,1.40993 -15.70737,1.57066 -7.5027,0.13571 -11.56749,-0.0368 -14.77253,-0.62676 z m 26.12592,-28.33203 c 0.14111,-0.37674 -0.37411,-1.34835 -1.14495,-2.15914 -0.78453,-0.82518 -1.69609,-2.75512 -2.07063,-4.38392 l -0.66911,-2.90978 -9.14722,0 -9.14721,0 -0.66911,2.90978 c -0.37454,1.6288 -1.2861,3.55874 -2.07063,4.38392 -2.5767,2.71023 -2.01708,2.84413 11.88695,2.84413 9.71043,0 12.83689,-0.16433 13.03191,-0.68499 z m 28.41439,-12.42464 1.63547,-1.60182 0,-24.72896831 c 0,-26.38962569 -0.067,-27.07918769 -2.76652,-28.49422969 -0.59204,-0.310329 -3.57225,-0.564236 -6.6227,-0.564236 l -5.54626,0 1.3659,-2.703198 c 1.67884,-3.322521 1.36204,-5.422449 -1.12757,-7.474212 -1.41234,-1.163959 -2.12419,-1.379117 -3.72239,-1.125101 -1.08685,0.172742 -2.61144,0.772077 -3.38797,1.331855 -1.90131,1.370593 -27.97265,37.46136869 -27.68833,38.32919469 0.15241,0.465206 -0.44809,0.684989 -1.87154,0.684989 -2.85723,0 -4.40275,1.21360301 -5.97234,4.68969701 -1.31507,2.91243 -1.64172,3.148976 -5.04491,3.653336 -0.61546,0.09121 -1.11901,0.532357 -1.11901,0.9803233 0,0.675213 1.10017,0.809213 6.43429,0.783688 5.50731,-0.02636 6.77558,-0.204954 8.80323,-1.2396493 2.63443,-1.344327 3.47998,-3.174474 2.46984,-5.345862 -0.49369,-1.061239 -0.46113,-1.329569 0.16131,-1.329569 0.42891,0 6.61684,-6.226548 13.75096,-13.8367747 12.0772,-12.883201 15.49741,-16.204536 13.34897,-12.963096 -1.56034,2.354153 -0.88505,2.688263 5.43333,2.688263 l 5.82817,0 0,19.4536837 0,19.4536843 -35.80823,0 -35.80822,0 0,-19.4470913 0,-19.4470967 21.12126,-0.143588 21.12125,-0.143587 1.79183,-2.625937 c 0.9855,-1.444265 1.65095,-2.98549 1.47877,-3.424944 -0.26762,-0.683055 -3.84169,-0.799008 -24.62837,-0.799008 -15.60696,0 -24.70084,0.202078 -25.39176,0.564236 -2.69957,1.415042 -2.76652,2.104604 -2.76652,28.49422969 l 0,24.72896831 1.63547,1.60182 1.63547,1.60182 39.81082,0 39.81083,0 1.63547,-1.60182 z"
           id="path4045"
           inkscape:connector-curvature="0" />
      </g>
      <text
         sodipodi:linespacing="125%"
         style="font-size:40px;font-style:normal;font-variant:normal;font-weight:normal;font-stretch:normal;line-height:125%;letter-spacing:0px;word-spacing:0px;fill:#ffffff;fill-opacity:1;stroke:none;font-family:Kaushan Script;-inkscape-font-specification:Kaushan Script"
         xml:space="preserve"
         id="text4602-1-6"
         y="177.60309"
         x="265.14462"><tspan
           style="font-size:22px;font-style:normal;font-variant:normal;font-weight:normal;font-stretch:normal;fill:#ffffff;fill-opacity:1;font-family:Sawasdee;-inkscape-font-specification:Sawasdee"
           id="tspan4604-0-2"
           y="177.60309"
           x="265.14462">Website Design</tspan></text>
    </g>
    <g
       id="g4281">
      <g
         id="g4233"
         transform="translate(-2.9059188,7.7491151)">
        <path
           transform="translate(451.87029,53.759488)"
           d="m 150.13911,12.659299 c 0,33.970263 -27.53834,61.508602 -61.508602,61.508602 -33.970263,0 -61.508602,-27.538339 -61.508602,-61.508602 0,-33.970263 27.538339,-61.508602 61.508602,-61.508602 33.970262,0 61.508602,27.538339 61.508602,61.508602 z"
           sodipodi:ry="61.508602"
           sodipodi:rx="61.508602"
           sodipodi:cy="12.659299"
           sodipodi:cx="88.630508"
           id="path4191-2-1"
           style="fill:#ffffff;fill-opacity:1;stroke:none"
           sodipodi:type="arc" />
        <path
           style="fill:#07c78e;fill-opacity:1"
           d="m 532.1061,134.54437 c -18.92959,-2.25196 -36.06561,-12.03874 -47.58675,-27.1779 -3.2631,-4.28782 -7.58484,-12.143919 -9.38978,-17.068842 -2.9828,-8.13878 -4.2724,-15.461648 -4.2724,-24.260442 0,-11.322771 2.10375,-20.390189 7.06743,-30.461543 5.54418,-11.249178 13.5411,-20.273225 24.04633,-27.1348396 9.02245,-5.893116 19.59598,-9.687601 30.46154,-10.931628 3.89488,-0.445934 11.98864,-0.445934 15.88352,0 18.6456,2.13478195 35.69396,11.590411 47.05689,26.0994336 3.82293,4.881405 8.26003,12.749221 10.24602,18.168134 2.9828,8.13878 4.2724,15.461648 4.2724,24.260443 0,11.324554 -2.10497,20.395854 -7.06853,30.461542 -3.54326,7.185452 -7.66788,12.924152 -13.2686,18.460962 -10.96916,10.844 -25.64223,17.81989 -41.23818,19.60551 -3.72586,0.42658 -12.54427,0.41525 -16.20989,-0.0208 z m 0.95739,-28.20004 c 0.88798,-2.34874 24.42135,-80.493249 24.32014,-80.757007 -0.11621,-0.302844 -0.7396,-0.346846 -4.9139,-0.346846 -3.58609,0 -4.82461,0.06797 -4.95611,0.271978 -0.3343,0.518656 -24.58279,80.778835 -24.48695,81.049465 0.0732,0.20663 1.26829,0.27197 4.97403,0.27197 4.85847,0 4.87844,-0.002 5.06279,-0.48956 z M 513.01052,85.24165 c 1.7068,-1.703754 3.10327,-3.211245 3.10327,-3.349982 0,-0.138737 -3.47588,-3.678923 -7.72418,-7.867081 -4.24829,-4.188157 -7.72417,-7.76414 -7.72417,-7.946631 0,-0.182488 3.57275,-3.840108 7.93945,-8.128042 4.3667,-4.287937 7.91602,-7.845203 7.88737,-7.905038 -0.0287,-0.05983 -1.49181,-1.516983 -3.25145,-3.238108 l -3.19936,-3.129314 -11.21548,11.057734 c -6.16851,6.081753 -11.21548,11.161291 -11.21548,11.287864 0,0.220767 21.97037,22.316334 22.18989,22.316334 0.0588,0 1.50334,-1.393981 3.21014,-3.097736 z m 69.21276,-7.977985 c 6.00308,-6.091647 10.9147,-11.170365 10.9147,-11.28604 0,-0.115678 -5.04508,-5.181448 -11.21129,-11.25727 l -11.21128,-11.046946 -2.76839,2.68086 c -1.52261,1.474473 -3.00381,2.900915 -3.29154,3.169871 l -0.52314,0.48901 7.97534,7.872997 c 4.38644,4.330147 7.97469,8.033468 7.97388,8.229599 -8.7e-4,0.196133 -3.47669,3.766922 -7.72418,7.935088 -4.24749,4.168168 -7.7227,7.691779 -7.7227,7.830246 0,0.321156 6.1147,6.458306 6.43468,6.458306 0.13157,0 5.15084,-4.984074 11.15392,-11.075721 z"
           id="path4060"
           inkscape:connector-curvature="0" />
      </g>
      <text
         sodipodi:linespacing="125%"
         style="font-size:40px;font-style:normal;font-variant:normal;font-weight:normal;font-stretch:normal;line-height:125%;letter-spacing:0px;word-spacing:0px;fill:#ffffff;fill-opacity:1;stroke:none;font-family:Kaushan Script;-inkscape-font-specification:Kaushan Script"
         xml:space="preserve"
         id="text4602-1-6-7"
         y="166.31743"
         x="472.55765"><tspan
           style="font-size:22px;font-style:normal;font-variant:normal;font-weight:normal;font-stretch:normal;letter-spacing:7.82000017000000014px;fill:#ffffff;fill-opacity:1;font-family:Sawasdee;-inkscape-font-specification:Sawasdee"
           id="tspan4604-0-2-8"
           y="166.31743"
           x="472.55765">Website</tspan><tspan
           style="font-size:22px;font-style:normal;font-variant:normal;font-weight:normal;font-stretch:normal;fill:#ffffff;fill-opacity:1;font-family:Sawasdee;-inkscape-font-specification:Sawasdee"
           id="tspan4930"
           y="193.81743"
           x="472.55765">Development</tspan></text>
    </g>
    <g
       id="g4296">
      <g
         id="g4270"
         transform="translate(5.9372789,61.992923)">
        <path
           transform="translate(254.26785,302.69982)"
           d="m 150.13911,12.659299 c 0,33.970263 -27.53834,61.508602 -61.508602,61.508602 -33.970263,0 -61.508602,-27.538339 -61.508602,-61.508602 0,-33.970263 27.538339,-61.508602 61.508602,-61.508602 33.970262,0 61.508602,27.538339 61.508602,61.508602 z"
           sodipodi:ry="61.508602"
           sodipodi:rx="61.508602"
           sodipodi:cy="12.659299"
           sodipodi:cx="88.630508"
           id="path4191-2"
           style="fill:#ffffff;fill-opacity:1;stroke:none"
           sodipodi:type="arc" />
        <path
           style="fill:#07c78e;fill-opacity:1"
           d="m 325.95493,380.76939 c -13.19919,-3.45931 -22.79362,-8.86963 -31.9286,-18.0046 -13.36043,-13.36044 -19.60713,-28.82107 -19.60713,-48.52778 0,-19.70672 6.2467,-35.16736 19.60713,-48.52779 13.36043,-13.36043 28.82107,-19.60713 48.52778,-19.60713 19.70672,0 35.16735,6.2467 48.52779,19.60713 13.36043,13.36043 19.60713,28.82107 19.60713,48.52779 0,19.70671 -6.2467,35.16734 -19.60713,48.52778 -9.2459,9.2459 -18.83656,14.61296 -32.23684,18.04017 -8.3601,2.13815 -24.66343,2.12052 -32.89013,-0.0356 z m 41.14832,-50.87488 c 0.26396,-0.68785 -0.46034,-1.95991 -1.74529,-3.06518 l -2.1965,-1.88935 0.16928,-12.22019 c 0.1175,-8.48154 -0.12198,-12.57117 -0.78277,-13.36737 -0.77731,-0.93659 -4.42854,-1.14491 -19.8916,-1.13489 -10.41676,0.007 -19.33801,0.27729 -19.82502,0.6012 -1.10348,0.73391 -1.88596,14.98844 -1.16537,21.22978 0.29267,2.53502 0.31915,4.60913 0.0588,4.60913 -1.32644,0 -5.8261,4.6341 -5.31019,5.46885 0.42718,0.6912 7.22896,0.94385 25.41038,0.94385 21.07985,0 24.89516,-0.17747 25.27826,-1.17583 z m -41.63386,-8.96181 c -0.3026,-0.3026 -0.55019,-4.63828 -0.55019,-9.63485 l 0,-9.08465 17.25956,0 17.25956,0 -0.22583,9.41865 -0.22584,9.41865 -16.48352,0.2162 c -9.06595,0.11892 -16.73113,-0.0314 -17.03374,-0.334 z m 19.6788,-4.34042 c 1.02735,-0.4681 2.35954,-1.96176 2.96043,-3.31925 0.94298,-2.13034 0.92236,-2.75444 -0.1506,-4.55963 -0.6837,-1.15031 -2.20623,-2.57497 -3.38339,-3.1659 -2.85881,-1.43513 -6.37325,-0.007 -7.99841,3.25105 -1.06094,2.12671 -1.05769,2.65728 0.0291,4.75896 1.77096,3.42466 5.09526,4.60559 8.54284,3.03477 z m -4.61378,-4.78549 c -0.3113,-0.50371 -0.18882,-1.29301 0.27217,-1.754 1.07726,-1.07725 3.58882,-0.13762 3.15055,1.17869 -0.44617,1.34 -2.71448,1.72126 -3.42272,0.57531 z"
           id="path4170"
           inkscape:connector-curvature="0" />
      </g>
      <text
         sodipodi:linespacing="125%"
         style="font-size:40px;font-style:normal;font-variant:normal;font-weight:normal;font-stretch:normal;line-height:125%;letter-spacing:0px;word-spacing:0px;fill:#ffffff;fill-opacity:1;stroke:none;font-family:Kaushan Script;-inkscape-font-specification:Kaushan Script"
         xml:space="preserve"
         id="text4602-1-6-7-5"
         y="266.11902"
         x="284.98096"><tspan
           style="font-size:22px;font-style:normal;font-variant:normal;font-weight:normal;font-stretch:normal;letter-spacing:5.55999994px;fill:#ffffff;fill-opacity:1;font-family:Sawasdee;-inkscape-font-specification:Sawasdee"
           id="tspan4604-0-2-8-8"
           y="266.11902"
           x="284.98096">Web App</tspan><tspan
           style="font-size:22px;font-style:normal;font-variant:normal;font-weight:normal;font-stretch:normal;fill:#ffffff;fill-opacity:1;font-family:Sawasdee;-inkscape-font-specification:Sawasdee"
           id="tspan5102"
           y="293.61902"
           x="284.98096">Development</tspan></text>
    </g>
  </g>
</svg>
